<?xml version="1.0" standalone="no"?><!DOCTYPE svg PUBLIC "-//W3C//DTD SVG 1.1//EN" "http://www.w3.org/Graphics/SVG/1.1/DTD/svg11.dtd"><svg t="1528713615102" class="icon" style="" viewBox="0 0 1670 1024" version="1.1" xmlns="http://www.w3.org/2000/svg" p-id="1699" id="mx_n_1528713615103" xmlns:xlink="http://www.w3.org/1999/xlink" width="326.171875" height="200"><defs><style type="text/css"></style></defs><path d="M906.216825 229.429895L1104.064404 31.582316a107.789474 107.789474 0 0 1 152.468211 0l381.035789 381.035789a107.789474 107.789474 0 0 1 0 152.522106l-381.035789 381.035789a107.789474 107.789474 0 0 1-152.468211 0l-197.847579-197.847579 145.084632-145.138526a161.684211 161.684211 0 0 0 0-228.621474l-145.084632-145.138526zM31.613036 421.888l381.035789-381.035789a107.789474 107.789474 0 0 1 152.522106 0l381.035789 381.035789a107.789474 107.789474 0 0 1 0 152.468211l-381.035789 381.035789a107.789474 107.789474 0 0 1-152.522106 0l-381.035789-381.035789a107.789474 107.789474 0 0 1 0-152.468211z" p-id="1700"></path></svg>