<?xml version="1.0" standalone="no"?><!DOCTYPE svg PUBLIC "-//W3C//DTD SVG 1.1//EN" "http://www.w3.org/Graphics/SVG/1.1/DTD/svg11.dtd"><svg t="1525254359406" class="icon" style="" viewBox="0 0 1024 1024" version="1.1" xmlns="http://www.w3.org/2000/svg" p-id="1944" xmlns:xlink="http://www.w3.org/1999/xlink" width="200" height="200"><defs><style type="text/css"></style></defs><path d="M802.6 616.3c-254.1-316-293.4-143.7-355.6-59.5-53 71.7-87.8 113.3-115.5 39.3-63.1-168.6-123.8-44.8-160.7 4V292.2H673v-64.8H122.2c-9.1 0-16.2 11.3-16.2 20.6v578.4c0 9.3 7.4 16.8 16.5 16.8h726.1c9.1 0 18.8-6.9 18.8-16.2V421.8h-64.8v194.5zM235.7 405.7c0 26.8 21.7 48.5 48.6 48.5 26.8 0 48.6-21.7 48.6-48.5s-21.7-48.5-48.6-48.5c-26.9 0-48.6 21.7-48.6 48.5z m615.5-162.1v-64.8h-48.6v64.8h-64.8v48.6h64.8V357h48.6v-64.8H916v-48.6h-64.8z" fill="#8a8a8a" p-id="1945"></path></svg>