<?xml version="1.0" standalone="no"?><!DOCTYPE svg PUBLIC "-//W3C//DTD SVG 1.1//EN" "http://www.w3.org/Graphics/SVG/1.1/DTD/svg11.dtd"><svg t="1526706592459" class="icon" style="" viewBox="0 0 1025 1024" version="1.1" xmlns="http://www.w3.org/2000/svg" p-id="1891" xmlns:xlink="http://www.w3.org/1999/xlink" width="200.1953125" height="200"><defs><style type="text/css"></style></defs><path d="M533.353412 682.285176c0-0.030118 0.060235-0.060235 0.060235-0.090353C533.172706 682.194824 533.142588 682.224941 533.353412 682.285176zM40.176941 555.008l314.398118 314.398118c27.045647 27.045647 70.927059 27.045647 97.942588 0 27.045647-26.985412 27.045647-70.866824 0-97.912471l-196.186353-196.216471 665.630118 0c38.249412 0 69.240471-31.021176 69.240471-69.240471 0-38.279529-31.021176-69.270588-69.240471-69.270588L256.361412 436.766118l196.186353-196.186353c27.045647-27.015529 27.045647-70.927059 0-97.942588C439.024941 129.114353 421.285647 122.337882 403.546353 122.337882c-17.709176 0-35.448471 6.776471-48.941176 20.299294L40.176941 457.065412C13.101176 484.111059 13.101176 527.932235 40.176941 555.008z" p-id="1892" fill="#ffffff"></path></svg>