<svg id="图层_1" data-name="图层 1" xmlns="http://www.w3.org/2000/svg" xmlns:xlink="http://www.w3.org/1999/xlink" viewBox="0 0 385 86.02"><defs><style>.cls-1{fill:url(#未命名的渐变_35);}.cls-2{fill:url(#未命名的渐变_30);}.cls-3{fill:url(#未命名的渐变_47);}.cls-4{fill:url(#未命名的渐变_50);}.cls-5{fill:url(#未命名的渐变_44);}.cls-6{fill:url(#未命名的渐变_13);}</style><linearGradient id="未命名的渐变_35" x1="7.5" y1="50" x2="85.16" y2="50" gradientUnits="userSpaceOnUse"><stop offset="0" stop-color="#4f468b"/><stop offset="1" stop-color="#4f468b"/></linearGradient><linearGradient id="未命名的渐变_30" x1="89.82" y1="64.25" x2="143.91" y2="64.25" gradientUnits="userSpaceOnUse"><stop offset="0" stop-color="#4f468b"/><stop offset="1" stop-color="#7552ba"/></linearGradient><linearGradient id="未命名的渐变_47" x1="148.55" y1="64.25" x2="206.45" y2="64.25" gradientUnits="userSpaceOnUse"><stop offset="0" stop-color="#7552ba"/><stop offset="1" stop-color="#7552ba"/></linearGradient><linearGradient id="未命名的渐变_50" x1="213.24" y1="50" x2="269.84" y2="50" gradientUnits="userSpaceOnUse"><stop offset="0" stop-color="#7552ba"/><stop offset="1" stop-color="#6460c3"/></linearGradient><linearGradient id="未命名的渐变_44" x1="274.95" y1="64.25" x2="334.1" y2="64.25" gradientUnits="userSpaceOnUse"><stop offset="0" stop-color="#6460c3"/><stop offset="1" stop-color="#6460c3"/></linearGradient><linearGradient id="未命名的渐变_13" x1="340.05" y1="64.25" x2="392.5" y2="64.25" gradientUnits="userSpaceOnUse"><stop offset="0" stop-color="#6363c8"/><stop offset="1" stop-color="#5f74e3"/></linearGradient></defs><title>ace渐变</title><path class="cls-1" d="M55.78,13.82Q52.8,6.59,46.84,7q-6.38-.42-8.94,6.81L8.11,82.77Q5.56,92.12,13.65,93q6,.42,7.66-5.53L29,69.57h34.9l7.23,18.3A7.67,7.67,0,0,0,78.76,93q8.08-.86,6-10.21Zm-21.7,43L46.84,27.44,58.76,56.81Z" transform="translate(-7.5 -6.99)"/><path class="cls-2" d="M137.91,70.43q-3.83-1.28-7.23,3.83a14.93,14.93,0,0,1-12.34,6.81q-13.62-.85-14.47-17,1.7-15.74,14.9-16.6,6.8,0,11.06,6.38,3,5.11,8.09,3.83,6.8-2.12,4.68-8.51-5.54-12.77-23.83-13.62Q91.52,37.23,89.82,64,91.1,91.71,118.34,93q17.87-.43,25.11-13.62Q145.57,73,137.91,70.43Z" transform="translate(-7.5 -6.99)"/><path class="cls-3" d="M198.34,68.72h-34.9q2.12,12.35,14.47,12.34,10.21,0,14.47-5.11,5.11-5.11,9.36-3,6.38,3.41,3,9.36Q197.92,93,177.92,93,149,92.55,148.55,64q1.28-27.23,29.79-28.51,26.81,1.28,28.09,26Q206.85,69.15,198.34,68.72Zm-34.9-11.49H192q-3-10.21-14-10.64Q167.27,46.59,163.45,57.23Z" transform="translate(-7.5 -6.99)"/><path class="cls-4" d="M213.24,73.83v-60q0-6.8,7.23-6.81t7.23,6.81v26a24.82,24.82,0,0,1,14-4.26q27.23.86,28.09,27.66-.43,29.36-34,29.79Q213.23,93,213.24,73.83Zm14.47-13.62V73q.42,7.24,8.09,7.66,19.57,0,19.58-17.45-.43-14.46-13.62-15.32Q228.56,48.3,227.71,60.21Z" transform="translate(-7.5 -6.99)"/><path class="cls-5" d="M304.74,35.53Q332,36.8,334.1,64,332,91.71,304.74,93,276.65,91.7,274.95,64,276.64,36.38,304.74,35.53Zm15.32,28.94q-.86-16.6-15.32-17-14.47.86-15.75,17,.85,16.18,15.75,16.6Q319.63,80.65,320.06,64.47Z" transform="translate(-7.5 -6.99)"/><path class="cls-6" d="M366.87,73.4l-14.9,17A7.36,7.36,0,0,1,346.87,93q-9.79-1.71-5.53-10.21l16.6-19.15L343,45.32q-3.83-7.66,5.11-9.79a7.5,7.5,0,0,1,5.53,2.13L366.87,53.4l11.49-14.9a9,9,0,0,1,6.38-3q9.78,2.13,4.68,10.21l-14,17.45,15.75,19.15q4.25,8.09-4.68,10.64a7.72,7.72,0,0,1-5.53-2.55Z" transform="translate(-7.5 -6.99)"/></svg>