<?xml version="1.0" standalone="no"?><!DOCTYPE svg PUBLIC "-//W3C//DTD SVG 1.1//EN" "http://www.w3.org/Graphics/SVG/1.1/DTD/svg11.dtd"><svg t="1528359724342" class="icon" style="" viewBox="0 0 1024 1024" version="1.1" xmlns="http://www.w3.org/2000/svg" p-id="1152" xmlns:xlink="http://www.w3.org/1999/xlink" width="200" height="200"><defs><style type="text/css"></style></defs><path d="M664.9 942.7H319.2c-10.5 0-19.6-11.2-21.5-26.7l-72.5-571c-2.2-17.7 0.2-30.2 7.3-38.3 3.6-4.1 10.4-9 21.9-9h479.9c9.7 0 15.4 4.2 18.6 7.7 8.6 9.7 7.9 25.5 6.1 39.6l-72.5 571c-2.1 15.5-11.1 26.7-21.6 26.7z" fill="#FFFFFF" p-id="1153"></path><path d="M282.2 503.2l49 386.2c1.1 8.8 5.7 15.9 10.3 15.9h301c4.6 0 9.2-7.1 10.3-15.9l49-386.2H282.2z" fill="#76C49A" p-id="1154"></path><path d="M325.2 842.1l6 47.4c1.1 8.8 5.7 15.9 10.3 15.9h301c4.6 0 9.2-7.1 10.3-15.9l6-47.4H325.2z" fill="#4E98A0" p-id="1155"></path><path d="M740.2 311.8m-185.3 0a185.3 185.3 0 1 0 370.6 0 185.3 185.3 0 1 0-370.6 0Z" fill="#FFFFFF" p-id="1156"></path><path d="M740.2 311.8m-147.7 0a147.7 147.7 0 1 0 295.4 0 147.7 147.7 0 1 0-295.4 0Z" fill="#FFB850" p-id="1157"></path><path d="M730.2 164.1h20v295.5h-20z" fill="#FFFFFF" p-id="1158"></path><path d="M628.69 409.18l208.948-208.948 14.142 14.142-208.948 208.949z" fill="#FFFFFF" p-id="1159"></path><path d="M592.5 301.8H888v20H592.5z" fill="#FFFFFF" p-id="1160"></path><path d="M628.69 214.445l14.142-14.142L851.78 409.251l-14.142 14.142z" fill="#FFFFFF" p-id="1161"></path><path d="M740.2 116.5c-103.4 0-188.2 80.7-194.8 182.5h20c6.6-90.7 82.5-162.5 174.8-162.5 96.6 0 175.3 78.6 175.3 175.3s-78.6 175.3-175.3 175.3c-1.4 0-2.8 0-4.2-0.1v20c1.4 0 2.8 0.1 4.2 0.1 107.7 0 195.3-87.6 195.3-195.3s-87.6-195.3-195.3-195.3z" fill="#322E63" p-id="1162"></path><path d="M740.2 507.1c-107.7 0-195.3-87.6-195.3-195.3V299h20v12.8c0 96.6 78.6 175.3 175.3 175.3v20z" fill="#FFB850" p-id="1163"></path><path d="M492.2 873.1c-5.5 0-10-4.5-10-10V260.3c0-66.8-16.6-116.2-97.8-139.9-84.5-24.7-185.1-54.6-186.1-54.9-5.3-1.6-8.3-7.1-6.7-12.4s7.1-8.3 12.4-6.7c1 0.3 101.5 30.2 186 54.8 43 12.6 72.5 32.7 90.3 61.5 15 24.3 21.9 55.3 21.9 97.6v602.8c0 5.5-4.5 10-10 10z" fill="#322E63" p-id="1164"></path><path d="M472.6 309.2h40v561.9h-40z" fill="#28B1D5" p-id="1165"></path><path d="M512.6 881.1h-40c-5.5 0-10-4.5-10-10V309.2c0-5.5 4.5-10 10-10h40c5.5 0 10 4.5 10 10v561.9c0 5.5-4.4 10-10 10z m-30-20h20V319.2h-20v541.9z" fill="#FFFFFF" p-id="1166"></path><path d="M669.4 951.3H314.6c-10.8 0-20.1-11.5-22.1-27.4L218 337.6c-2.3-18.1 0.2-31 7.5-39.3 3.7-4.2 10.7-9.3 22.5-9.3h492.7c10 0 15.9 4.3 19.1 8 8.8 10 8.1 26.2 6.3 40.7l-74.4 586.2c-2.2 15.9-11.5 27.4-22.3 27.4z m-353.4-20h352c1.1-1.2 3-4.6 3.7-10l74.4-586.2c2.3-17.7 0.1-23.2-1.4-24.9-0.3-0.3-1-1.2-4-1.2H248c-4.7 0-6.5 1.4-7.4 2.5-1.5 1.7-4.7 7.4-2.7 23.6l74.4 586.2c0.7 5.4 2.6 8.8 3.7 10z" fill="#322E63" p-id="1167"></path></svg>